<svg version="1.1" xmlns="http://www.w3.org/2000/svg" xmlns:xlink="http://www.w3.org/1999/xlink" x="0px" y="0px" viewBox="0 0 48 48" enable-background="new 0 0 48 48" xml:space="preserve" width="32" height="32" style="fill: rgb(54, 240, 237);">
<path fill="#283593" d="M16.8,44.2L16.8,44.2C13,42,10.9,36.4,13,32.8c2-3.5,7.2-5.3,12.6-1.9c2.7,1.7,5.9,3.1,9.8,3.1&#10;&#9;c3.6,0,7-2.2,8.9-5.5c0.7-1.2,1.2-2.7,1.5-3.7c-0.1,3.5-1.1,7.1-3,10.3C38,43.6,24.8,48.9,16.8,44.2z"/>
<path fill="#283593" d="M10.5,7.4L10.5,7.4c3.8-2,9.7-1.3,11.5,2.6c1.6,3.5,1.8,8.4-4.9,11.9c-2.8,1.5-6,3.3-7.8,6.7&#10;&#9;c-1.7,3.2-1.9,7.1,0,10.5c0.7,1.2,1.7,2.5,2.4,3.2c-2.9-1.9-5.4-4.6-7.2-8C-0.2,25.7,2.2,11.8,10.5,7.4z"/>
<path fill="#283593" d="M45,19.9L45,19.9c0,4.3-3.7,9-8,9c-4,0-8-2.3-8-9.9c0-3.2-0.3-6.9-2.3-10.1c-1.9-3.1-5.4-5-9.3-4.9&#10;&#9;c-1.4,0-3,0.3-4,0.7C16.4,3,20,2.1,23.8,2C33.6,2,44.9,10.6,45,19.9z"/>
</svg>